<?xml version="1.0" encoding="iso-8859-1"?>
<!-- Generator: Adobe Illustrator 28.4.1, SVG Export Plug-In . SVG Version: 6.00 Build 0)  -->
<svg version="1.1" id="Layer_1" xmlns="http://www.w3.org/2000/svg" xmlns:xlink="http://www.w3.org/1999/xlink" x="0px" y="0px"
	 viewBox="0 0 600 90.814" style="enable-background:new 0 0 600 90.814;" xml:space="preserve">
<g>
	<g>
		<path style="fill:#010101;" d="M125.716,26.31c0-0.263,0.088-0.35,0.35-0.35c0.525,0,2.188,0.175,6.214,0.175
			c4.289,0,6.652-0.175,7.089-0.175c0.438,0,0.525,0.175,0.525,0.35v1.138c0,0.263-0.088,0.438-0.438,0.438h-2.451
			c-1.4,0-2.188,0.438-2.188,1.313c0,0.438,0.088,1.05,0.175,1.75c0.35,1.838,2.188,7.965,3.151,10.853
			c0.613,1.926,3.588,10.765,4.814,13.916h0.088c1.05-2.451,5.076-13.041,5.514-14.179c0.525-1.4,2.451-7.264,3.238-9.54
			c0.438-1.313,0.7-2.188,0.7-2.888c0-0.613-0.35-1.225-1.663-1.225h-1.313c-0.175,0-0.263-0.175-0.263-0.438V26.31
			c0-0.263,0.088-0.35,0.35-0.35c0.438,0,2.801,0.175,6.039,0.175c3.764,0,5.076-0.175,5.514-0.175c0.35,0,0.35,0.088,0.35,0.35
			v1.313c0,0.175-0.088,0.35-0.35,0.35h-1.4c-1.663,0-2.713,0.788-3.676,2.013c-1.313,1.663-5.426,12.166-6.302,14.354
			c-0.613,1.663-7.264,18.03-7.527,18.555c-0.175,0.438-0.438,0.7-0.7,0.7c-0.438,0-0.613-0.525-0.875-1.138
			c-1.663-4.726-5.777-16.454-6.477-18.292l-0.525-1.75c-1.225-3.676-3.676-11.115-4.289-12.603
			c-0.525-1.225-1.05-1.663-2.101-1.663h-1.313c-0.175,0-0.263-0.175-0.263-0.35V26.31L125.716,26.31z"/>
		<path style="fill:#010101;" d="M158.012,47.49c0-1.75-0.35-2.713-2.888-3.063c-0.35-0.088-0.438-0.175-0.438-0.35v-0.438
			c0-0.175,0.088-0.263,0.35-0.35c1.663-0.613,3.588-1.4,5.514-2.538c0.438-0.175,0.7-0.35,0.963-0.35s0.35,0.263,0.263,0.613
			c-0.088,0.875-0.088,4.114-0.088,8.402v5.602c0,2.013,0,3.851,0.088,4.464c0.088,0.963,0.263,1.313,0.788,1.313h2.363
			c0.438,0,0.525,0.175,0.525,0.438v0.875c0,0.35-0.088,0.525-0.438,0.525c-0.438,0-2.801-0.175-4.901-0.175
			c-2.976,0-4.989,0.175-5.514,0.175c-0.263,0-0.438-0.088-0.438-0.438v-1.05c0-0.35,0.175-0.438,0.525-0.438h2.538
			c0.525,0,0.788-0.175,0.788-1.05c0.088-1.575,0.088-3.151,0.088-4.639L158.012,47.49z"/>
		<path style="fill:#010101;" d="M156.787,35.5c0-1.313,1.05-2.713,3.151-2.713c1.838,0,2.713,1.4,2.713,2.538
			c0,1.313-0.963,2.801-2.976,2.801C158.538,38.213,156.787,37.163,156.787,35.5"/>
		<path style="fill:#010101;" d="M244.661,47.49c0-1.75-0.35-2.713-2.888-3.063c-0.35-0.088-0.438-0.175-0.438-0.35v-0.438
			c0-0.175,0.088-0.263,0.35-0.35c1.663-0.613,3.588-1.4,5.514-2.538c0.438-0.175,0.7-0.35,0.963-0.35s0.35,0.263,0.263,0.613
			c-0.088,0.875-0.088,4.114-0.088,8.402v5.602c0,2.013,0,3.851,0.088,4.464c0.088,0.963,0.263,1.313,0.788,1.313h2.363
			c0.438,0,0.525,0.175,0.525,0.438v0.875c0,0.35-0.088,0.525-0.438,0.525c-0.438,0-2.801-0.175-4.901-0.175
			c-2.976,0-4.989,0.175-5.514,0.175c-0.263,0-0.438-0.088-0.438-0.438v-1.05c0-0.35,0.175-0.438,0.525-0.438h2.538
			c0.525,0,0.788-0.175,0.788-1.05c0.088-1.575,0.088-3.151,0.088-4.639L244.661,47.49z"/>
		<path style="fill:#010101;" d="M243.523,35.5c0-1.313,1.05-2.713,3.151-2.713c1.838,0,2.713,1.4,2.713,2.538
			c0,1.313-0.963,2.801-2.976,2.801C245.186,38.213,243.523,37.163,243.523,35.5"/>
		<path style="fill:#010101;" d="M173.067,56.068c0,3.851,1.75,4.551,2.713,4.551c1.225,0,2.713-0.175,3.413-0.7
			c0.263-0.175,0.438-0.088,0.613,0.088l0.263,0.438c0.175,0.175,0.088,0.438-0.088,0.525c-0.525,0.525-2.626,2.101-5.689,2.101
			c-2.538,0-4.989-2.451-4.989-4.376c0-2.101,0.175-6.652,0.175-7.352v-1.138c0-0.963,0.088-4.376,0.088-6.564h-3.151
			c-0.438,0-0.788-0.175-0.788-0.613c0-0.438,0.35-0.525,0.963-0.963c1.225-0.7,5.164-4.726,5.864-6.477
			c0.175-0.438,0.438-0.525,0.7-0.525c0.438,0,0.525,0.35,0.525,0.788l-0.263,5.076h7.177c0.263,0,0.438,0.263,0.35,0.438
			l-0.525,1.838c-0.088,0.263-0.175,0.438-0.438,0.438h-6.652c-0.088,2.363-0.175,4.814-0.175,7.177L173.067,56.068L173.067,56.068z
			"/>
		<path style="fill:#010101;" d="M193.81,47.228c0.963,0,1.4-0.263,1.4-0.7c0-1.225-0.613-4.551-3.939-4.551
			c-2.276,0-4.376,1.488-5.426,5.251H193.81z M185.67,48.803c-0.088,0.438-0.175,1.313-0.175,2.451c0,5.076,3.151,8.84,7.264,8.84
			c3.151,0,5.339-1.838,6.214-3.501c0.088-0.175,0.35-0.35,0.438-0.263l0.7,0.35c0.175,0.088,0.263,0.175,0,0.788
			c-0.963,2.101-3.588,5.602-8.14,5.602c-2.888,0-6.127-0.875-8.052-3.676c-1.838-2.626-2.276-4.551-2.276-8.14
			c0-2.013,0.525-5.426,3.238-8.14c2.188-2.276,4.814-2.713,7.352-2.713c5.952,0,7.527,5.514,7.527,7.527
			c0,0.7-0.613,0.788-1.4,0.788L185.67,48.803z"/>
		<path style="fill:#010101;" d="M205.625,48.803c0-2.626-0.438-3.151-1.838-3.939l-0.963-0.525
			c-0.263-0.088-0.438-0.175-0.438-0.35v-0.35c0-0.175,0.088-0.263,0.438-0.438l5.076-2.626c0.35-0.175,0.525-0.175,0.7-0.175
			c0.35,0,0.35,0.35,0.35,0.613l0.263,3.588h0.175c1.575-2.363,3.939-4.464,6.127-4.464c1.75,0,2.626,1.05,2.626,2.276
			c0,1.488-1.225,2.538-2.188,2.538c-0.525,0-1.05-0.175-1.488-0.438c-0.438-0.263-1.05-0.438-1.663-0.438
			c-0.788,0-2.188,0.525-3.063,2.188c-0.263,0.525-0.525,1.488-0.525,1.663v10.765c0,1.575,0.35,2.101,1.4,2.101h2.451
			c0.35,0,0.35,0.175,0.35,0.438v0.963c0,0.35-0.088,0.438-0.263,0.438c-0.35,0-2.713-0.175-5.426-0.175
			c-3.151,0-5.339,0.175-5.689,0.175c-0.175,0-0.263-0.088-0.263-0.525v-0.875c0-0.35,0.088-0.438,0.525-0.438h2.013
			c0.788,0,1.138-0.35,1.138-0.963c0.088-1.663,0.088-3.501,0.088-6.127v-4.901C205.538,48.803,205.625,48.803,205.625,48.803z"/>
		<path style="fill:#010101;" d="M224.005,51.429c0,4.289,0.175,5.777,0.788,7.44c0.525,1.225,2.713,2.538,4.901,2.538
			c3.063,0,6.914-2.101,6.914-8.84c0-4.989-2.626-9.715-7.615-9.715c-1.926,0-3.764,0.7-4.901,1.838L224.005,51.429z
			 M220.329,34.799c0-3.413-0.525-4.201-2.451-4.814l-0.525-0.175c-0.525-0.175-0.7-0.263-0.7-0.438v-0.438
			c0-0.175,0.088-0.263,0.438-0.438c1.488-0.7,4.201-2.013,5.426-2.801c0.35-0.263,0.788-0.438,1.05-0.438
			c0.35,0,0.438,0.263,0.438,0.875c-0.088,0.438-0.088,6.302-0.088,10.853v5.952c1.663-1.575,4.551-2.538,7.089-2.538
			c4.551,0,9.453,3.676,9.453,11.028c0,6.039-4.814,11.641-10.678,11.641c-2.888,0-4.901-0.613-6.039-1.313l-2.101,1.138
			c-0.175,0.175-0.35,0.175-0.7,0.175l-0.613-0.175c-0.175-0.088-0.263-0.175-0.175-0.438c0.088-0.7,0.088-4.989,0.088-8.752
			L220.329,34.799z"/>
		<path style="fill:#A42036;" d="M31.016,30.336c0-1.75-0.438-2.626-1.75-2.626h-2.363c-0.35,0-0.438-0.088-0.438-0.438v-1.225
			c0-0.35,0.088-0.438,0.525-0.438c0.525,0,2.976,0.175,8.052,0.175c4.376,0,6.827-0.175,7.527-0.175c0.35,0,0.438,0.088,0.438,0.35
			v1.313c0,0.35-0.088,0.438-0.438,0.438h-2.188c-1.575,0-2.538,0.963-2.538,2.013c-0.088,0.613-0.175,3.764-0.175,6.739v6.477
			c0,2.626,0.088,6.302,0.175,7.965c0.175,2.363,0.613,4.814,1.838,6.477c1.75,2.363,4.551,3.238,7.089,3.238
			c2.363,0,5.339-0.963,7.002-2.538c2.013-2.013,3.063-4.989,3.063-8.752v-9.365c0-4.201-0.438-8.752-0.613-9.978
			c-0.175-1.313-0.963-2.276-2.101-2.276h-1.838c-0.35,0-0.438-0.175-0.438-0.35v-1.313c0-0.35,0.088-0.438,0.438-0.438
			c0.525,0,2.888,0.175,6.389,0.175c3.238,0,4.901-0.175,5.339-0.175c0.438,0,0.525,0.175,0.525,0.438v1.225
			c0,0.35-0.088,0.438-0.35,0.438h-1.838c-1.838,0-2.101,1.488-2.188,2.013c-0.088,0.613-0.088,7.877-0.088,8.577
			s-0.088,9.803-0.35,11.903c-0.35,4.289-1.575,7.527-4.376,9.978c-2.188,2.013-5.514,3.238-9.453,3.238
			c-2.538,0-5.514-0.438-7.527-1.225c-2.976-1.225-5.076-3.676-6.127-7.002c-0.7-2.276-0.963-5.689-0.963-12.516V30.336H31.016z"/>
		<path style="fill:#A42036;" d="M65.675,50.991c0.175,0,0.35,0.088,0.35,0.438c0.088,1.663,0.525,3.676,2.013,5.952
			c1.575,2.538,4.289,3.764,6.827,3.764c2.801,0,6.739-1.75,6.739-6.127c0-4.814-2.188-6.302-7.702-8.402
			c-1.663-0.613-5.076-2.101-7.615-4.376c-1.75-1.663-2.626-4.289-2.626-7.44c0-2.888,1.138-5.339,3.676-7.264
			c2.101-1.75,4.376-2.538,7.352-2.538c3.413,0,5.514,0.875,6.564,1.225c0.525,0.175,0.875,0.088,1.05-0.175l0.7-0.7
			c0.175-0.175,0.438-0.35,0.7-0.35c0.35,0,0.438,0.35,0.438,0.875c0,0.788,0.875,8.14,0.875,8.665c0,0.175-0.088,0.35-0.35,0.35
			l-0.875,0.263c-0.175,0.088-0.438,0-0.525-0.35c-0.525-1.488-1.313-3.501-3.238-5.514c-1.313-1.488-2.976-2.188-5.426-2.188
			c-4.201,0-5.864,3.326-5.864,5.251c0,1.75,0.175,3.326,1.488,4.639c1.313,1.313,4.289,2.626,6.389,3.238
			c2.976,0.963,5.514,2.013,7.527,4.026c1.663,1.75,2.626,3.939,2.626,7.44c0,6.389-4.201,11.553-11.028,11.553
			c-4.289,0-6.739-0.963-8.84-2.538c-0.613-0.438-0.963-0.613-1.225-0.613c-0.35,0-0.525,0.438-0.875,0.963
			c-0.35,0.525-0.525,0.613-0.963,0.613c-0.438,0-0.613-0.35-0.613-0.875c0.088-0.613,0.875-9.015,0.963-9.715
			c0.088-0.35,0.088-0.438,0.35-0.438L65.675,50.991z"/>
		<path style="fill:#A42036;" d="M122.39,54.142c0.175,0.175,0.175,0.35,0.088,0.525c-3.151,4.464-8.14,8.752-15.492,8.752
			c-6.652,0-10.415-2.013-13.654-4.901c-3.851-3.413-5.602-9.453-5.602-14.091c0-5.076,1.663-9.978,5.339-13.916
			c2.801-2.976,7.264-5.514,13.566-5.514c4.814,0,8.665,1.488,10.503,2.538c0.7,0.438,0.963,0.438,1.05,0l0.438-1.313
			c0.088-0.35,0.175-0.35,0.875-0.35c0.613,0,0.7,0.088,0.7,0.875c0,0.963,1.05,9.278,1.225,10.853c0.088,0.35,0,0.438-0.175,0.525
			l-0.963,0.35c-0.263,0.088-0.438-0.088-0.613-0.525c-0.613-1.838-1.838-4.464-4.026-6.739c-2.276-2.188-4.989-3.851-9.015-3.851
			c-8.315,0-11.728,7.527-11.728,14.967c0,3.238,0.963,9.365,4.814,13.566c3.413,3.676,6.477,4.026,8.927,4.026
			c5.689,0,10.24-2.888,12.428-6.039c0.263-0.35,0.438-0.525,0.613-0.35L122.39,54.142z"/>
	</g>
	<rect x="266.367" y="4.34" style="fill:#010101;" width="1.189" height="79.913"/>
	<g>
		<g>
			<path style="fill:#010101;" d="M298.51,46.813h-2.511c-0.296,0-0.549-0.012-0.622-0.35c-0.097-0.435,0.314-0.525,0.314-0.525
				c-0.036,0.024-0.139,0.217-0.054,0.417c0.072,0.181,0.223,0.157,0.471,0.157l2.807-0.006
				C298.915,46.783,298.51,46.813,298.51,46.813"/>
			<path style="fill:#010101;" d="M297.834,57.715h-1.219c-0.205,0-0.392-0.042-0.471-0.272c-0.091-0.278,0.217-0.338,0.217-0.338
				c-0.024,0.018-0.06,0.109-0.006,0.248c0.054,0.127,0.163,0.121,0.338,0.121l1.431,0.006
				C298.118,57.715,297.834,57.715,297.834,57.715"/>
			<path style="fill:#010101;" d="M298.879,47.067l-3.387,0.006c-0.32,0-0.61-0.278-0.616-0.694c0-0.398,0.296-0.688,0.61-0.688
				h3.387c0.314,0,0.61,0.302,0.61,0.682C299.488,46.759,299.193,47.067,298.879,47.067 M298.052,47.918h-1.733
				c-0.296,0-0.561-0.139-0.73-0.356l3.193-0.006C298.613,47.773,298.347,47.912,298.052,47.918 M296.838,48.449
				c0.374,0.012,0.851,0.012,1.352-0.054l-0.356,7.938h-0.851L296.838,48.449z M296.156,48.395c0,0,0.127,0.018,0.326,0.03
				l0.296,7.908h-0.229L296.156,48.395z M298.71,57.408c0,0.32-0.266,0.598-0.592,0.598h-1.829c-0.332,0-0.598-0.266-0.598-0.598
				c0-0.326,0.266-0.598,0.598-0.598h1.829C298.444,56.816,298.71,57.082,298.71,57.408 M297.593,61.736
				c0,0.217-0.157,0.392-0.386,0.392c-0.211,0-0.386-0.175-0.386-0.392l-0.163-3.242h0.205l0.115,3.133
				c0,0.235,0.109,0.284,0.109,0.284l-0.06-3.417h0.712L297.593,61.736z M294.586,44.066c0-0.429,0.175-0.779,0.356-1.159
				c0.223-0.459,0.471-0.966,0.356-1.606c0.235,0.091,0.531,0.248,0.791,0.507c-0.163,0.199-0.344,0.392-0.441,0.513
				c-0.694,0.821-0.96,1.799-0.217,2.892h-0.103C295.317,45.219,294.586,44.954,294.586,44.066 M297.031,40.444
				c0.616,0.501,1.376,1.437,1.382,2.517c0,0.978-0.833,2.095-1.038,2.24c-0.163-0.217-0.362-0.628-0.362-1.093
				c0-0.803,0.392-1.274,0.392-1.274s-0.579,0.374-0.664,1.117c-0.042,0.362,0.036,0.749,0.284,1.25h-0.35
				c-0.097-0.151-0.779-1.002-0.205-1.962c0.097-0.157,0.519-0.773,0.573-0.899c0.066-0.151,0.06-0.296,0.06-0.296
				c-0.072,0.115-0.193,0.254-0.193,0.254c-0.121,0.133-0.537,0.567-0.67,0.724c-0.815,0.984-0.024,2.083,0.018,2.179h-0.332
				c-0.362-0.417-0.483-0.821-0.447-1.425C295.546,42.418,297.194,42.249,297.031,40.444 M299.301,41.603
				c-0.163,1.026,0.139,1.865,0.193,1.992c0.29,1.038-0.495,1.521-0.67,1.612l-0.024-0.006h-0.785
				c0.495-0.646,0.887-1.485,0.887-2.24c0-0.229-0.024-0.447-0.066-0.652l-0.066-0.217C298.963,41.863,299.15,41.7,299.301,41.603
				 M299.44,45.388c0.417-0.374,0.797-1.026,0.531-1.944l-0.012-0.03c-0.006-0.006-0.417-1.032-0.06-2.167l0.121-0.374l-0.392,0.048
				c-0.054,0.006-0.519,0.078-1.075,0.64c-0.465-0.942-1.352-1.642-2.276-2.107c0.338,1.081,0.386,1.473,0.103,1.938
				c-0.628-0.586-1.401-0.7-1.431-0.706l-0.447-0.066l0.181,0.41c0.284,0.658,0.06,1.117-0.199,1.648
				c-0.193,0.392-0.41,0.833-0.41,1.382c0,0.718,0.362,1.177,0.706,1.425c-0.241,0.217-0.398,0.537-0.398,0.893
				c0,0.453,0.229,0.845,0.58,1.038c0.115,0.35,0.362,0.646,0.682,0.815l0.404,8.113c-0.495,0.103-0.863,0.543-0.863,1.062
				c0,0.561,0.423,1.02,0.966,1.075l0.163,3.254c0,0.483,0.392,0.875,0.875,0.869c0.501,0,0.869-0.386,0.875-0.863l0.145-3.266
				c0.549-0.054,0.972-0.531,0.972-1.075c0-0.525-0.374-0.966-0.875-1.062l0.362-8.095c0.338-0.169,0.604-0.471,0.718-0.839
				c0.35-0.205,0.58-0.616,0.58-1.032C299.971,45.98,299.76,45.6,299.44,45.388"/>
			<path style="fill:#010101;" d="M318.77,46.813h-2.511c-0.296,0-0.549-0.012-0.622-0.35c-0.097-0.435,0.32-0.525,0.32-0.525
				c-0.036,0.024-0.139,0.217-0.054,0.417c0.072,0.181,0.217,0.157,0.471,0.157l2.807-0.006
				C319.174,46.783,318.77,46.813,318.77,46.813"/>
			<path style="fill:#010101;" d="M318.094,57.715h-1.219c-0.205,0-0.398-0.042-0.471-0.272c-0.091-0.278,0.217-0.338,0.217-0.338
				c-0.024,0.018-0.066,0.109-0.006,0.248c0.054,0.127,0.169,0.121,0.338,0.121l1.431,0.006
				C318.383,57.715,318.094,57.715,318.094,57.715"/>
			<path style="fill:#010101;" d="M319.144,47.067l-3.387,0.006c-0.32,0-0.61-0.278-0.61-0.694c0-0.398,0.296-0.688,0.61-0.688
				h3.387c0.314,0,0.61,0.302,0.616,0.682C319.754,46.759,319.458,47.067,319.144,47.067 M318.317,47.918h-1.739
				c-0.296,0-0.561-0.139-0.73-0.356l3.193-0.006C318.878,47.773,318.613,47.912,318.317,47.918 M317.104,48.449
				c0.368,0.012,0.851,0.012,1.346-0.054l-0.356,7.938h-0.851L317.104,48.449z M316.415,48.395c0,0,0.127,0.018,0.326,0.03
				l0.296,7.908h-0.229L316.415,48.395z M318.969,57.408c0,0.32-0.266,0.598-0.592,0.598h-1.829c-0.332,0-0.598-0.266-0.598-0.598
				c0-0.326,0.266-0.598,0.598-0.598h1.829C318.703,56.816,318.969,57.082,318.969,57.408 M317.852,61.736
				c0,0.217-0.163,0.392-0.386,0.392c-0.211,0-0.386-0.175-0.386-0.392l-0.163-3.242h0.205l0.115,3.133
				c0,0.235,0.109,0.284,0.109,0.284l-0.06-3.417h0.712L317.852,61.736z M314.852,44.066c0-0.429,0.175-0.779,0.356-1.159
				c0.223-0.459,0.471-0.966,0.356-1.606c0.235,0.091,0.531,0.248,0.791,0.507c-0.163,0.199-0.344,0.392-0.441,0.513
				c-0.688,0.821-0.954,1.799-0.217,2.892h-0.109C315.582,45.219,314.852,44.954,314.852,44.066 M317.291,40.444
				c0.616,0.501,1.382,1.437,1.382,2.517c0,0.978-0.833,2.095-1.038,2.24c-0.163-0.217-0.362-0.628-0.362-1.093
				c0-0.803,0.392-1.274,0.392-1.274s-0.58,0.374-0.67,1.117c-0.042,0.362,0.036,0.749,0.284,1.25h-0.356
				c-0.097-0.151-0.773-1.002-0.205-1.962c0.097-0.157,0.519-0.773,0.573-0.899c0.066-0.151,0.06-0.296,0.06-0.296
				c-0.072,0.115-0.193,0.254-0.193,0.254c-0.121,0.133-0.537,0.567-0.67,0.724c-0.815,0.984-0.024,2.083,0.018,2.179h-0.332
				c-0.362-0.417-0.483-0.821-0.447-1.425C315.812,42.418,317.454,42.249,317.291,40.444 M319.567,41.603
				c-0.169,1.026,0.139,1.865,0.187,1.992c0.29,1.038-0.495,1.521-0.67,1.612l-0.024-0.006h-0.791
				c0.489-0.646,0.887-1.485,0.887-2.24c0-0.229-0.024-0.447-0.066-0.652l-0.066-0.217C319.222,41.863,319.41,41.7,319.567,41.603
				 M319.699,45.388c0.417-0.374,0.797-1.026,0.537-1.944l-0.012-0.03c-0.006-0.006-0.417-1.032-0.06-2.167l0.121-0.374
				l-0.392,0.048c-0.054,0.006-0.519,0.078-1.075,0.64c-0.465-0.942-1.352-1.642-2.276-2.107c0.338,1.081,0.386,1.473,0.103,1.938
				c-0.634-0.586-1.401-0.7-1.431-0.706l-0.447-0.066l0.181,0.41c0.284,0.658,0.06,1.117-0.199,1.648
				c-0.193,0.392-0.41,0.833-0.41,1.382c0,0.718,0.368,1.177,0.712,1.425c-0.241,0.217-0.398,0.537-0.398,0.893
				c0,0.453,0.229,0.845,0.58,1.038c0.115,0.35,0.362,0.646,0.682,0.815l0.404,8.113c-0.495,0.103-0.863,0.543-0.857,1.062
				c0,0.561,0.423,1.02,0.966,1.075l0.163,3.254c0,0.483,0.392,0.875,0.875,0.869c0.501,0,0.869-0.386,0.875-0.863l0.145-3.266
				c0.549-0.054,0.972-0.531,0.966-1.075c0-0.525-0.374-0.966-0.875-1.062l0.362-8.095c0.338-0.169,0.604-0.471,0.718-0.839
				c0.35-0.205,0.58-0.616,0.58-1.032C320.237,45.98,320.025,45.6,319.699,45.388"/>
			<path style="fill:#010101;" d="M309.727,48.654l-4.473,0.006c-0.586,0-1.056-0.471-1.056-1.056c0-0.58,0.471-1.056,1.056-1.056
				l4.473-0.006c0.078,0,0.157,0.012,0.229,0.024l0.006,0.012c0,0,0.006,0,0.012-0.006c0.465,0.115,0.809,0.531,0.815,1.026
				C310.783,48.177,310.306,48.654,309.727,48.654 M308.827,49.801h-2.729c-0.435,0-0.809-0.26-0.972-0.64
				c0.042,0.006,0.078,0.006,0.121,0.006l4.479-0.006c0.048,0,0.103,0,0.151-0.006C309.709,49.53,309.298,49.795,308.827,49.801
				 M308.495,61.537h-1.298l-0.139-11.228h1.769c0.06,0,0.121-0.006,0.187-0.012L308.495,61.537z M309.696,62.913
				c0,0.483-0.392,0.875-0.875,0.881h-2.602c-0.483,0-0.875-0.392-0.875-0.875c0-0.483,0.392-0.875,0.875-0.875l2.602-0.006
				C309.304,62.038,309.696,62.43,309.696,62.913 M308.157,68.877c0,0.368-0.296,0.664-0.664,0.664c-0.368,0-0.67-0.302-0.67-0.676
				l-0.211-4.564h0.41l0.175,4.461c0,0.332,0.151,0.392,0.151,0.392l-0.078-4.854h1.099L308.157,68.877z M306.461,50.308
				l0.471,11.228h-0.447l-0.513-11.234c0.042,0,0.085,0.006,0.127,0.006L306.461,50.308z M303.793,44.417
				c0-0.616,0.248-1.111,0.507-1.642c0.338-0.694,0.688-1.401,0.447-2.33c0.368,0.115,0.906,0.362,1.358,0.833
				c-0.109,0.139-0.235,0.272-0.362,0.41c-0.097,0.109-0.199,0.217-0.308,0.338c-0.151,0.151-1.799,1.883-0.404,4.033
				c-0.06,0.006-0.115,0.018-0.169,0.036C304.698,46.034,303.793,45.612,303.793,44.417 M307.083,40.571
				c0.151-0.429,0.127-0.93,0.066-1.316c0.773,0.598,2.113,1.859,2.125,3.471c0.012,1.636-1.05,2.898-1.455,3.314h-0.072
				c-0.223-0.302-0.495-0.863-0.495-1.503c0-1.117,0.543-1.769,0.543-1.769s-0.803,0.525-0.924,1.551
				c-0.054,0.501,0.054,1.032,0.386,1.72h-0.489c-0.151-0.229-1.056-1.394-0.284-2.704c0.133-0.223,0.718-1.075,0.797-1.25
				c0.091-0.211,0.078-0.41,0.078-0.41c-0.097,0.163-0.266,0.35-0.266,0.35c-0.169,0.187-0.749,0.785-0.93,1.008
				c-1.105,1.34-0.072,2.831,0.018,3.006h-0.549c-1.533-2.004,0.085-3.592,0.157-3.658l0.018-0.018
				c0.103-0.121,0.205-0.229,0.302-0.332C306.503,41.603,306.841,41.241,307.083,40.571 M310.56,40.813
				c-0.314,1.509,0.157,2.765,0.223,2.928c0.386,1.376-0.537,2.089-0.899,2.306c-0.054-0.006-0.103-0.006-0.157-0.006h-1.225
				c0.531-0.64,1.292-1.823,1.28-3.32c0-0.386-0.066-0.749-0.181-1.093C309.968,41.187,310.312,40.945,310.56,40.813
				 M310.475,46.234c0.513-0.435,1.171-1.286,0.785-2.644l-0.012-0.03c-0.006-0.012-0.592-1.473-0.085-3.073l0.121-0.374
				l-0.392,0.048c-0.03,0.006-0.706,0.097-1.509,0.942c-0.773-1.612-2.427-2.608-2.517-2.662l-0.61-0.362l0.241,0.664
				c0.097,0.272,0.308,1.093,0.103,1.654c-0.06,0.169-0.133,0.32-0.205,0.453c-0.863-0.857-1.962-1.014-2.01-1.02l-0.447-0.06
				l0.181,0.41c0.417,0.948,0.091,1.606-0.278,2.36c-0.278,0.555-0.555,1.135-0.555,1.865c0,1.008,0.537,1.636,1.008,1.95
				c-0.374,0.284-0.61,0.736-0.61,1.238c0,0.616,0.356,1.141,0.875,1.401c0.091,0.519,0.435,0.954,0.899,1.165l0.525,11.391
				c-0.646,0.115-1.141,0.682-1.141,1.358c0,0.724,0.561,1.316,1.268,1.376l0.211,4.582c0,0.646,0.531,1.171,1.177,1.171
				s1.177-0.531,1.171-1.165l0.211-4.588c0.736-0.03,1.328-0.64,1.328-1.382c0-0.7-0.525-1.274-1.201-1.37l0.525-11.391
				c0.489-0.217,0.851-0.658,0.93-1.171c0.495-0.266,0.833-0.785,0.833-1.388C311.284,47.012,310.958,46.499,310.475,46.234"/>
			<path style="fill:#010101;" d="M305.006,47.622c-0.133-0.32,0.036-0.628,0.091-0.676c0,0-0.628,0.109-0.477,0.815
				c0.115,0.537,0.489,0.598,0.966,0.592l4.051-0.006c0,0,0.477,0.042,0.652-0.404l-4.534,0.006
				C305.362,47.954,305.121,47.912,305.006,47.622"/>
			<path style="fill:#010101;" d="M306.008,62.943c-0.103-0.254,0.03-0.501,0.072-0.531c0,0-0.495,0.085-0.38,0.64
				c0.091,0.423,0.386,0.471,0.767,0.471l2.209-0.006c0,0,0.374,0.036,0.513-0.314h-2.584
				C306.292,63.209,306.105,63.173,306.008,62.943"/>
			<path style="fill:#010101;" d="M326.358,51.365c-2.952,7.202-8.602,17.054-18.792,23.266
				c-10.208-6.182-15.889-16.028-18.859-23.223c-2.735-6.622-3.737-12.249-3.984-13.903c1.219-0.682,2.433-1.014,3.809-1.02h0.012
				c0.966,0,2.324,0.175,3.103,0.404l0.471,0.139c0.398,0.115,0.809,0.235,1.225,0.356l0,0c1.509,0.429,3.224,0.869,4.509,0.869
				h0.006c1.443-0.006,3.694-0.193,6.218-1.081c0.718-0.254,1.576-0.531,2.499-0.652l0.833-0.06c0.018,0,0.03,0,0.048,0l1.286,0.115
				c0.785,0.133,1.515,0.374,2.137,0.586c2.517,0.881,4.763,1.069,6.212,1.069h0.012c0.869,0,2.004-0.199,3.568-0.622l0,0
				c0.652-0.175,1.31-0.374,1.932-0.555l0.7-0.205c0.773-0.229,2.191-0.41,3.157-0.417h0.006c1.37,0,2.626,0.332,3.833,0.984
				C330.07,39.044,329.092,44.7,326.358,51.365 M298.347,31.256c-0.314,0.779-0.543,1.612-0.652,2.487
				c-1.153-0.048-2.686-0.441-4.057-0.833l-1.69-0.489c-0.857-0.248-2.294-0.435-3.344-0.435h-0.012
				c-1.509,0-3.079,0.362-4.407,0.996c-0.06-0.833-0.109-1.775-0.133-2.801L298.347,31.256z M284.089,26.789l14.856,3.254
				c-0.133,0.229-0.254,0.459-0.368,0.7l-14.536-1.944C284.046,28.154,284.064,27.477,284.089,26.789 M284.602,21.362l15.424,7.147
				c-0.29,0.344-0.567,0.694-0.815,1.075l-15.044-4.22C284.252,24.079,284.396,22.739,284.602,21.362 M285.006,19.05
				c0.598,0.127,1.775,0.356,3.296,0.519l12.532,8.107c-0.169,0.151-0.332,0.308-0.489,0.471l-15.484-8.288
				C284.91,19.587,284.952,19.322,285.006,19.05 M291.677,19.75c1.612,0,3.127-0.133,4.546-0.398l6.32,7.081
				c-0.477,0.278-0.93,0.592-1.352,0.948l-10.444-7.643C291.055,19.744,291.357,19.75,291.677,19.75 M299.742,18.386l4.196,7.371
				c-0.284,0.109-0.561,0.229-0.833,0.362l-5.33-7.123C298.462,18.809,299.12,18.603,299.742,18.386 M305.29,15.712l1.274,9.429
				c-0.706,0.066-1.388,0.211-2.04,0.423l-3.513-7.643C302.76,17.203,304.203,16.412,305.29,15.712 M307.487,14.1
				c0.314,0.26,0.628,0.513,0.948,0.749l-0.567,10.262c-0.121-0.006-0.235-0.018-0.356-0.018h-0.012
				c-0.127,0-0.247,0.012-0.368,0.018l-0.567-10.275C306.974,14.535,307.288,14.275,307.487,14.1 M309.678,15.712
				c1.497,0.972,2.982,1.684,4.256,2.197l-3.513,7.636c-0.652-0.205-1.322-0.344-2.016-0.41L309.678,15.712z M315.196,18.386
				c0.899,0.308,1.6,0.495,1.98,0.592l-5.336,7.135c-0.272-0.133-0.549-0.254-0.833-0.362L315.196,18.386z M318.764,19.298
				c1.564,0.272,3.187,0.417,4.848,0.417c0.199,0,0.392-0.006,0.586-0.012l-10.444,7.649c-0.423-0.344-0.869-0.658-1.34-0.93
				L318.764,19.298z M326.617,19.557c1.576-0.163,2.759-0.404,3.356-0.555c0.06,0.272,0.103,0.537,0.151,0.809l-15.52,8.313
				c-0.157-0.163-0.326-0.326-0.495-0.477L326.617,19.557z M330.39,21.326c0.217,1.407,0.362,2.777,0.453,4.087l-15.038,4.214
				c-0.26-0.404-0.555-0.779-0.875-1.141L330.39,21.326z M330.964,28.818l-14.53,1.944c-0.109-0.229-0.229-0.459-0.362-0.682
				l14.838-3.248C330.946,27.514,330.964,28.178,330.964,28.818 M320.629,33.544l-0.109-0.41c-0.899,0.241-2.185,0.555-3.199,0.586
				c-0.115-0.857-0.338-1.678-0.658-2.451l14.289-1.075c-0.024,0.984-0.066,1.889-0.121,2.692c-1.304-0.61-2.831-0.948-4.292-0.948
				h-0.006c-0.924,0-2.445,0.169-3.393,0.441l-0.652,0.193c-0.634,0.187-1.304,0.386-1.968,0.561L320.629,33.544z M307.547,31.957
				l-0.006,0.066L307.547,31.957c-0.338,0-0.676,0.024-1.002,0.066l0,0c-0.99,0.127-1.914,0.423-2.68,0.688
				c-2.071,0.73-3.948,0.966-5.312,1.02c0.622-4.461,4.389-7.787,8.946-7.787h0.012c4.497,0,8.319,3.368,8.952,7.763
				c-1.352-0.054-3.199-0.29-5.24-1.002c-0.61-0.211-1.419-0.477-2.282-0.628l-0.006,0.03l0.006-0.03
				C308.453,31.999,308,31.957,307.547,31.957 M297.919,34.595h0.006c1.008,0,2.415-0.103,4.027-0.459
				c0.7-0.157,1.431-0.356,2.191-0.622c0.724-0.254,1.588-0.531,2.505-0.652l0.887-0.06l1.274,0.115
				c0.803,0.139,1.564,0.386,2.137,0.592c0.936,0.326,1.829,0.555,2.662,0.718c1.413,0.272,2.638,0.35,3.55,0.35h0.012
				c0.875,0,1.974-0.193,3.568-0.622c0.67-0.181,1.346-0.38,1.992-0.567l0.652-0.193c0.773-0.223,2.185-0.41,3.157-0.41h0.006
				c1.455,0,2.97,0.374,4.22,1.026c-0.03,0.338-0.06,0.652-0.091,0.942c-1.298-0.652-2.735-0.99-4.19-0.99h-0.012
				c-0.93,0-2.457,0.169-3.393,0.447l-0.7,0.205c-0.622,0.181-1.274,0.38-1.92,0.549c-0.954,0.254-2.336,0.573-3.375,0.592
				c-1.376,0-3.513-0.181-5.922-1.02c-0.302-0.103-0.646-0.223-1.026-0.326c-0.398-0.115-0.821-0.223-1.262-0.296
				c-0.489-0.085-0.942-0.121-1.401-0.121c-0.332,0-0.658,0.024-0.996,0.066l0,0c-0.525,0.066-1.026,0.181-1.497,0.314
				c-0.423,0.121-0.821,0.248-1.183,0.38c-2.415,0.851-4.564,1.032-5.94,1.032h-0.006c-1.171,0-2.819-0.423-4.274-0.839l-1.69-0.489
				c-0.857-0.248-2.288-0.435-3.338-0.435h-0.024c-1.455,0.006-2.886,0.344-4.177,0.99c-0.03-0.278-0.06-0.58-0.091-0.899
				c1.274-0.676,2.837-1.062,4.34-1.062h0.006c0.966,0,2.33,0.175,3.109,0.404l1.696,0.495l0.115-0.404l-0.115,0.404
				C294.997,34.178,296.645,34.595,297.919,34.595 M320.569,37.203l-0.109-0.41c-1.491,0.404-2.554,0.592-3.35,0.592h-0.012
				c-1.382,0-3.525-0.175-5.934-1.02c-0.652-0.229-1.437-0.477-2.282-0.622c-0.863-0.145-1.606-0.163-2.403-0.06
				c-1.002,0.127-1.914,0.423-2.68,0.694c-2.415,0.851-4.564,1.026-5.94,1.032h-0.006c-1.183,0-2.825-0.423-4.274-0.839l-0.115,0.41
				l0.115-0.41c-0.417-0.115-0.821-0.235-1.219-0.35l-0.477-0.139c-0.857-0.248-2.294-0.435-3.338-0.435h-0.012
				c-1.419,0-2.686,0.314-3.948,0.966c-0.03-0.211-0.078-0.519-0.127-0.899c1.244-0.676,2.644-1.05,4.069-1.056h0.018
				c0.966,0,2.324,0.175,3.097,0.404l1.696,0.495l0.121-0.404l-0.115,0.404c1.588,0.453,3.236,0.875,4.509,0.875h0.012
				c1.443-0.006,3.688-0.193,6.218-1.087c0.724-0.254,1.594-0.531,2.505-0.646l0.827-0.06c0.018,0,0.036,0,0.048,0l1.28,0.115
				c0.785,0.139,1.521,0.374,2.137,0.586c2.517,0.881,4.763,1.069,6.2,1.069h0.024c0.869,0,1.968-0.193,3.574-0.622
				c0.652-0.175,1.31-0.368,1.944-0.555l0.694-0.205c0.767-0.223,2.179-0.41,3.157-0.41h0.012c1.431,0,2.837,0.368,4.087,1.05
				c-0.048,0.368-0.085,0.658-0.121,0.869c-1.25-0.628-2.554-0.93-3.966-0.93h-0.006c-0.924,0-2.445,0.169-3.399,0.447l-0.706,0.205
				c-0.616,0.187-1.268,0.374-1.914,0.549L320.569,37.203z M331.761,26.638l-0.085-1.461c-0.097-1.352-0.26-2.777-0.489-4.226
				l-0.163-0.984c-0.097-0.525-0.193-1.044-0.314-1.576l-0.097-0.441l-0.435,0.127c-0.012,0-0.712,0.205-1.896,0.398l-2.867,0.326
				c-0.567,0.036-1.171,0.06-1.811,0.06c-1.666,0-3.296-0.151-4.872-0.435l-1.002-0.199c-0.018-0.006-0.036-0.006-0.054-0.006
				c-0.018-0.006-0.827-0.175-2.052-0.592l-1.334-0.495c-1.334-0.531-2.916-1.304-4.485-2.354l-1.31-0.954
				c-0.247-0.193-0.489-0.392-0.73-0.604l-0.29-0.254l-0.278,0.266c-0.006,0.006-0.248,0.229-0.688,0.58l-1.34,0.966
				c-1.093,0.724-2.614,1.594-4.516,2.366l-1.334,0.501c-0.646,0.223-1.322,0.429-2.034,0.61c-0.018,0.006-0.036,0.006-0.054,0.012
				l-1.165,0.241c-1.364,0.254-2.831,0.386-4.389,0.386c-0.761,0-1.485-0.03-2.167-0.078l-2.867-0.332
				c-1.135-0.181-1.835-0.356-1.847-0.362l-0.423-0.109l-0.103,0.435c-0.091,0.423-0.169,0.845-0.247,1.262l-0.217,1.28
				c-0.223,1.425-0.38,2.813-0.471,4.141l-0.085,1.473c-0.03,0.718-0.048,1.413-0.048,2.077l0.012,1.431
				c0.078,4.014,0.555,6.779,0.598,7.003c0.042,0.344,0.893,6.803,4.105,14.597c3.018,7.317,8.796,17.331,19.203,23.634l0.453,0.272
				l0.453-0.272c10.389-6.339,16.136-16.366,19.136-23.688c3.193-7.799,4.027-14.265,4.069-14.603
				c0.036-0.223,0.501-2.958,0.58-6.93l0.006-1.419C331.803,28.039,331.791,27.357,331.761,26.638"/>
		</g>
		<g>
			<path style="fill:#9A1C20;" d="M340.78,20.843c0-1.081-0.254-1.588-1.081-1.588h-1.461c-0.193,0-0.254-0.066-0.254-0.29v-0.73
				c0-0.187,0.066-0.254,0.32-0.254c0.32,0,1.841,0.097,4.89,0.097c2.668,0,4.189-0.097,4.57-0.097c0.193,0,0.254,0.066,0.254,0.223
				v0.791c0,0.193-0.06,0.254-0.254,0.254h-1.334c-0.954,0-1.521,0.567-1.557,1.238c-0.03,0.38-0.097,2.288-0.097,4.129v3.942
				c0,1.588,0.03,3.839,0.097,4.86c0.097,1.461,0.35,2.922,1.111,3.936c1.081,1.461,2.795,1.968,4.316,1.968
				c1.461,0,3.242-0.573,4.256-1.521c1.207-1.207,1.841-3.049,1.841-5.367v-5.711c0-2.541-0.254-5.336-0.35-6.067
				c-0.097-0.827-0.604-1.394-1.304-1.394h-1.147c-0.187,0-0.254-0.097-0.254-0.223v-0.797c0-0.187,0.066-0.254,0.254-0.254
				c0.32,0,1.781,0.097,3.876,0.097c1.968,0,2.982-0.097,3.236-0.097c0.284,0,0.32,0.097,0.32,0.254v0.73
				c0,0.193-0.03,0.29-0.193,0.29h-1.141c-1.147,0-1.274,0.887-1.334,1.238c-0.06,0.38-0.06,4.829-0.06,5.24
				c0,0.441-0.066,5.97-0.187,7.238c-0.193,2.602-0.954,4.57-2.668,6.097c-1.334,1.207-3.368,1.968-5.783,1.968
				c-1.521,0-3.368-0.254-4.57-0.761c-1.841-0.761-3.115-2.222-3.749-4.256c-0.447-1.401-0.567-3.495-0.567-7.661v-7.522H340.78z"/>
			<path style="fill:#9A1C20;" d="M361.932,33.484c0.127,0,0.187,0.066,0.187,0.254c0.066,1.014,0.32,2.222,1.207,3.622
				c0.954,1.521,2.602,2.282,4.19,2.282c1.714,0,4.129-1.081,4.129-3.713c0-2.922-1.334-3.876-4.697-5.143
				c-1.014-0.38-3.115-1.274-4.636-2.668c-1.081-1.02-1.588-2.602-1.588-4.54c0-1.781,0.7-3.242,2.222-4.449
				c1.268-1.075,2.668-1.521,4.509-1.521c2.095,0,3.368,0.507,4.002,0.761c0.314,0.127,0.507,0.06,0.664-0.097l0.41-0.41
				c0.127-0.127,0.254-0.187,0.447-0.187s0.254,0.187,0.254,0.507c0,0.507,0.507,4.956,0.507,5.276c0,0.127-0.066,0.187-0.193,0.223
				l-0.507,0.157c-0.127,0.03-0.254,0-0.32-0.193c-0.32-0.887-0.827-2.161-1.968-3.362c-0.827-0.887-1.841-1.334-3.302-1.334
				c-2.541,0-3.556,2.034-3.556,3.206c0,1.081,0.127,2.034,0.887,2.855c0.827,0.827,2.602,1.588,3.876,1.974
				c1.841,0.573,3.362,1.207,4.57,2.475c1.014,1.081,1.588,2.415,1.588,4.546c0,3.876-2.541,7.045-6.731,7.045
				c-2.602,0-4.129-0.567-5.397-1.521c-0.38-0.254-0.573-0.38-0.761-0.38c-0.193,0-0.32,0.254-0.507,0.573
				c-0.193,0.32-0.314,0.38-0.573,0.38c-0.254,0-0.38-0.193-0.38-0.513c0.066-0.38,0.507-5.53,0.573-5.904
				c0.036-0.193,0.066-0.254,0.193-0.254L361.932,33.484z"/>
			<path style="fill:#9A1C20;" d="M397.187,35.392c0.097,0.097,0.127,0.187,0.06,0.314c-1.908,2.735-4.956,5.336-9.466,5.336
				c-4.063,0-6.351-1.207-8.319-2.988c-2.348-2.095-3.429-5.777-3.429-8.572c0-3.115,1.014-6.097,3.236-8.512
				c1.714-1.841,4.443-3.368,8.258-3.368c2.922,0,5.27,0.887,6.417,1.527c0.441,0.254,0.573,0.254,0.634,0l0.254-0.827
				c0.066-0.187,0.127-0.187,0.507-0.187c0.38,0,0.447,0.06,0.447,0.507c0,0.573,0.634,5.65,0.761,6.604
				c0.03,0.193,0,0.29-0.127,0.32l-0.604,0.193c-0.157,0.06-0.254-0.066-0.35-0.32c-0.38-1.141-1.141-2.729-2.475-4.129
				c-1.401-1.334-3.049-2.348-5.53-2.348c-5.077,0-7.178,4.576-7.178,9.146c0,1.968,0.573,5.717,2.922,8.258
				c2.095,2.222,3.936,2.475,5.463,2.475c3.495,0,6.254-1.745,7.588-3.682c0.157-0.223,0.284-0.314,0.38-0.223L397.187,35.392z"/>
		</g>
		<g>
			<path style="fill:#010101;" d="M407.093,40.378c-2.161-0.857-3.272-2.252-3.779-4.256c-0.38-1.425-0.507-3.556-0.507-7.715
				v-7.564c0-1.111-0.223-1.618-1.207-1.618h-1.491c-0.187,0-0.223-0.066-0.223-0.284v-0.7c0-0.187,0.036-0.254,0.284-0.254
				c0.32,0,1.871,0.097,4.353,0.097c2.475,0,4.002-0.097,4.352-0.097c0.254,0,0.284,0.066,0.284,0.187v0.827
				c0,0.157-0.03,0.223-0.254,0.223h-1.588c-0.924,0-1.461,0.604-1.527,1.304c-0.03,0.284-0.06,2.511-0.06,4.129v2.095
				c0,1.678,0.127,5.717,0.157,6.731c0.03,1.461,0.284,2.952,1.014,4.033c1.171,1.714,3.206,2.288,5.047,2.288
				c1.811,0,3.652-0.604,4.763-1.745c1.238-1.334,1.654-3.236,1.654-5.59v-6.797c0-2.415-0.066-4.256-0.157-5.053
				c-0.097-0.827-0.604-1.401-1.431-1.401h-1.395c-0.187,0-0.223-0.097-0.223-0.254v-0.755c0-0.157,0.03-0.223,0.223-0.223
				c0.32,0,1.781,0.097,3.906,0.097c2.191,0,3.206-0.097,3.495-0.097c0.284,0,0.32,0.127,0.32,0.223v0.7
				c0,0.193-0.03,0.32-0.193,0.32h-1.304c-1.177,0-1.268,0.893-1.364,1.268c-0.066,0.32-0.066,4.829-0.066,5.27
				c0,0.441-0.06,6.007-0.157,7.244c-0.187,2.602-0.887,4.606-2.668,6.127c-1.268,1.177-3.206,1.908-5.97,1.908
				C409.731,41.042,408.144,40.825,407.093,40.378"/>
			<path style="fill:#010101;" d="M434.373,38.851c0,0.507,0.284,0.664,0.7,0.664h1.014c0.29,0,0.35,0.097,0.35,0.284v0.507
				c0,0.223-0.06,0.35-0.254,0.35c-0.223,0-1.207-0.097-3.012-0.097c-1.624,0-2.638,0.097-2.861,0.097
				c-0.193,0-0.254-0.097-0.254-0.35v-0.507c0-0.223,0.097-0.284,0.417-0.284h0.924c0.35,0,0.604-0.157,0.634-0.73
				c0.03-0.827,0.06-1.841,0.06-2.668v-4.189c0-1.274,0-2.191-0.918-2.855c-0.767-0.573-1.527-0.573-2.318-0.573
				c-0.507,0-1.618,0.223-2.572,1.238c-0.634,0.7-0.73,1.557-0.73,2.155v6.574c0,0.857,0.097,1.05,0.761,1.05h0.791
				c0.254,0,0.32,0.097,0.32,0.314v0.543c0,0.193-0.066,0.29-0.223,0.29c-0.223,0-1.081-0.097-2.765-0.097
				c-1.618,0-2.638,0.097-2.825,0.097c-0.157,0-0.223-0.097-0.223-0.29v-0.573c0-0.187,0.066-0.284,0.314-0.284h0.924
				c0.41,0,0.634-0.097,0.634-0.64V31.45c0-0.954-0.507-1.491-1.304-1.877l-0.254-0.127c-0.223-0.097-0.254-0.187-0.254-0.284
				v-0.157c0-0.157,0.127-0.254,0.29-0.32l2.729-1.521c0.254-0.127,0.447-0.223,0.573-0.223c0.157,0,0.223,0.127,0.254,0.38
				l0.223,1.938h0.06c0.924-1.147,2.765-2.318,4.352-2.318c0.954,0,1.938,0.187,2.698,0.7c0.954,0.64,1.745,2.228,1.745,3.018
				V38.851z"/>
			<path style="fill:#010101;" d="M439.649,31.323c0-1.075-0.193-1.648-1.781-1.902c-0.223-0.03-0.29-0.097-0.29-0.223v-0.284
				c0-0.097,0.066-0.157,0.223-0.223c1.014-0.38,2.221-0.887,3.429-1.557c0.254-0.127,0.41-0.193,0.604-0.193
				c0.157,0,0.187,0.157,0.157,0.38c-0.066,0.537-0.066,2.541-0.066,5.173v3.465c0,1.238,0,2.378,0.03,2.729
				c0.06,0.604,0.157,0.827,0.507,0.827h1.461c0.254,0,0.314,0.097,0.314,0.284v0.543c0,0.223-0.06,0.32-0.284,0.32
				c-0.254,0-1.714-0.097-3.049-0.097c-1.841,0-3.079,0.097-3.429,0.097c-0.157,0-0.254-0.066-0.254-0.254v-0.634
				c0-0.193,0.097-0.254,0.32-0.254h1.557c0.35,0,0.477-0.127,0.507-0.64c0.03-0.954,0.03-1.938,0.03-2.886v-4.672H439.649z
				 M438.219,21.64c0-0.797,0.67-1.648,1.938-1.648c1.111,0,1.654,0.857,1.654,1.557c0,0.827-0.573,1.751-1.841,1.751
				C439.263,23.294,438.219,22.654,438.219,21.64"/>
			<path style="fill:#010101;" d="M450.956,37.643h0.097c0.507-1.238,2.729-6.671,3.049-7.908c0.223-0.857,0-1.364-0.573-1.364
				h-0.634c-0.097,0-0.127-0.157-0.127-0.32v-0.573c0-0.193,0.066-0.254,0.187-0.254c0.447,0,1.147,0.097,2.541,0.097
				c1.238,0,1.998-0.097,2.288-0.097c0.254,0,0.284,0.03,0.284,0.284v0.543c0,0.223,0,0.32-0.157,0.32h-0.604
				c-0.38,0-0.7,0.06-0.984,0.35c-0.477,0.441-2.065,3.906-2.541,5.083c-0.38,0.948-2.729,6.284-2.855,6.508
				c-0.254,0.441-0.41,0.73-0.761,0.73c-0.314,0-0.507-0.284-0.664-0.664c-0.066-0.157-2.385-6.194-2.481-6.447
				c-0.097-0.254-1.395-3.876-1.618-4.383c-0.41-0.918-0.73-1.171-1.304-1.171h-0.634c-0.157,0-0.193-0.127-0.193-0.32v-0.573
				c0-0.223,0.066-0.254,0.35-0.254c0.35,0,0.887,0.097,2.668,0.097c1.684,0,2.511-0.097,2.861-0.097c0.254,0,0.32,0.06,0.32,0.254
				v0.573c0,0.187-0.03,0.32-0.223,0.32h-0.634c-0.32,0-0.573,0.193-0.573,0.604c0,0.573,0.827,3.206,1.014,3.749
				C449.242,33.327,450.606,36.979,450.956,37.643"/>
			<path style="fill:#010101;" d="M459.565,32.12c-0.066,0.284-0.097,0.797-0.097,1.521c0,3.115,1.968,5.463,4.509,5.463
				c1.938,0,3.302-1.111,3.845-2.161c0.06-0.127,0.187-0.193,0.284-0.157l0.41,0.223c0.097,0.03,0.157,0.127,0,0.477
				c-0.574,1.268-2.228,3.459-5.053,3.459c-1.811,0-3.809-0.537-4.986-2.258c-1.111-1.618-1.394-2.789-1.394-5.017
				c0-1.238,0.32-3.368,1.998-5.047c1.364-1.401,2.958-1.684,4.546-1.684c3.652,0,4.666,3.435,4.666,4.672
				c0,0.441-0.38,0.507-0.887,0.507C467.406,32.12,459.565,32.12,459.565,32.12z M464.611,31.166c0.604,0,0.857-0.157,0.857-0.447
				c0-0.73-0.38-2.825-2.445-2.825c-1.401,0-2.729,0.918-3.338,3.272H464.611z"/>
			<path style="fill:#010101;" d="M471.264,32.12c0-1.618-0.254-1.938-1.147-2.415l-0.604-0.32c-0.187-0.06-0.254-0.097-0.254-0.223
				v-0.193c0-0.127,0.06-0.187,0.254-0.284l3.145-1.618c0.193-0.097,0.32-0.127,0.447-0.127c0.193,0,0.223,0.193,0.223,0.38
				l0.157,2.191h0.127c0.954-1.461,2.445-2.759,3.809-2.759c1.081,0,1.618,0.664,1.618,1.401c0,0.918-0.761,1.557-1.334,1.557
				c-0.35,0-0.67-0.127-0.918-0.254c-0.254-0.157-0.634-0.254-1.05-0.254c-0.507,0-1.334,0.314-1.871,1.334
				c-0.193,0.35-0.32,0.924-0.32,1.02v6.665c0,0.984,0.223,1.304,0.893,1.304h1.491c0.193,0,0.223,0.097,0.223,0.284v0.573
				c0,0.193-0.03,0.29-0.157,0.29c-0.187,0-1.654-0.097-3.368-0.097c-1.968,0-3.302,0.097-3.495,0.097
				c-0.127,0-0.193-0.066-0.193-0.32V39.81c0-0.223,0.066-0.284,0.35-0.284h1.238c0.477,0,0.7-0.193,0.7-0.604
				c0.03-1.044,0.03-2.161,0.03-3.809V32.12H471.264z"/>
			<path style="fill:#010101;" d="M479.824,40.028c-0.157-0.097-0.157-0.284-0.193-0.447l-0.537-3.018
				c-0.03-0.157,0.066-0.223,0.187-0.254l0.41-0.091c0.127-0.03,0.223,0.03,0.284,0.193l0.797,1.557
				c0.634,1.177,1.081,1.968,2.759,1.968c1.111,0,2.511-0.67,2.511-2.161c0-1.431-0.7-2.258-3.079-2.922
				c-1.871-0.537-3.749-1.521-3.749-4.033c0-2.191,2.065-3.876,4.449-3.876c1.521,0,2.348,0.38,2.922,0.67
				c0.477,0.223,0.537,0.38,0.567,0.573l0.477,2.222c0,0.127-0.066,0.223-0.223,0.29l-0.386,0.127c-0.127,0.036-0.187,0-0.284-0.157
				l-1.081-1.461c-0.38-0.604-0.984-1.238-2.221-1.238c-1.207,0-2.445,0.73-2.445,2.095c0,1.841,1.491,2.191,3.049,2.638
				c2.318,0.67,3.779,1.624,3.809,4.069c-0.03,2.572-2.125,4.189-4.829,4.189C481.478,40.945,480.204,40.312,479.824,40.028"/>
			<path style="fill:#010101;" d="M491.034,31.323c0-1.075-0.193-1.648-1.781-1.902c-0.223-0.03-0.284-0.097-0.284-0.223v-0.284
				c0-0.097,0.066-0.157,0.223-0.223c1.02-0.38,2.222-0.887,3.429-1.557c0.254-0.127,0.41-0.193,0.604-0.193
				c0.157,0,0.193,0.157,0.157,0.38c-0.06,0.537-0.06,2.541-0.06,5.173v3.465c0,1.238,0,2.378,0.03,2.729
				c0.066,0.604,0.157,0.827,0.507,0.827h1.461c0.254,0,0.314,0.097,0.314,0.284v0.543c0,0.223-0.06,0.32-0.284,0.32
				c-0.254,0-1.714-0.097-3.049-0.097c-1.841,0-3.079,0.097-3.429,0.097c-0.157,0-0.254-0.066-0.254-0.254v-0.634
				c0-0.193,0.097-0.254,0.32-0.254h1.557c0.35,0,0.477-0.127,0.507-0.64c0.03-0.954,0.03-1.938,0.03-2.886L491.034,31.323
				L491.034,31.323z M489.603,21.64c0-0.797,0.67-1.648,1.938-1.648c1.111,0,1.648,0.857,1.648,1.557
				c0,0.827-0.567,1.751-1.841,1.751C490.654,23.294,489.603,22.654,489.603,21.64"/>
			<path style="fill:#010101;" d="M499.739,36.599c0,2.378,1.081,2.795,1.654,2.795c0.73,0,1.648-0.127,2.095-0.41
				c0.157-0.097,0.284-0.066,0.38,0.06l0.157,0.29c0.097,0.127,0.03,0.254-0.06,0.35c-0.32,0.32-1.618,1.268-3.525,1.268
				c-1.551,0-3.079-1.491-3.079-2.698c0-1.304,0.097-4.099,0.097-4.54v-0.7c0-0.573,0.03-2.698,0.066-4.033h-1.938
				c-0.284,0-0.477-0.127-0.477-0.38c0-0.254,0.193-0.35,0.574-0.567c0.761-0.447,3.212-2.922,3.622-4.002
				c0.097-0.254,0.254-0.314,0.447-0.314c0.254,0,0.32,0.223,0.32,0.477l-0.163,3.145h4.419c0.193,0,0.284,0.157,0.223,0.284
				l-0.32,1.111c-0.03,0.157-0.097,0.254-0.284,0.254h-4.099c-0.06,1.461-0.097,2.982-0.097,4.449v3.163H499.739z"/>
			<path style="fill:#010101;" d="M505.136,47.586c0-0.67,0.7-1.238,1.461-1.238c0.604,0,1.177,0.284,1.461,0.35
				c0.223,0.036,0.477,0,0.664-0.187c0.477-0.573,2.095-4.196,2.541-5.433c-0.157-0.797-3.525-10.703-3.779-11.367
				c-0.38-0.797-0.67-1.334-1.491-1.334h-0.827c-0.223,0-0.254-0.091-0.254-0.284v-0.646c0-0.127,0.03-0.223,0.254-0.223
				c0.29,0,1.05,0.097,2.922,0.097c1.618,0,2.602-0.097,2.952-0.097c0.254,0,0.284,0.097,0.284,0.223v0.67
				c0,0.157-0.03,0.248-0.187,0.248h-0.604c-0.35,0-0.477,0.223-0.411,0.7c0.097,0.7,2.258,7.685,2.608,8.385h0.127
				c0.32-0.507,3.079-7.081,3.272-7.878c0.193-0.797-0.06-1.213-0.537-1.213h-0.507c-0.193,0-0.223-0.091-0.223-0.248v-0.634
				c0-0.157,0.03-0.254,0.187-0.254c0.417,0,1.081,0.097,2.608,0.097c0.857,0,1.588-0.097,1.938-0.097
				c0.193,0,0.193,0.127,0.193,0.254v0.604c0,0.193,0,0.284-0.157,0.284h-0.507c-0.35,0-0.797,0.163-1.111,0.58
				c-0.7,0.857-2.795,5.681-4.986,10.667c-1.557,3.525-2.789,6.477-3.362,7.528c-0.447,0.827-1.02,2.065-2.698,2.065
				C505.74,49.204,505.136,48.54,505.136,47.586"/>
			<path style="fill:#010101;" d="M526.246,38.754c-1.461-1.745-1.745-2.922-1.745-5.173c0-1.624,0.857-3.652,2.729-5.113
				c1.654-1.274,3.206-1.527,4.256-1.527c1.745,0,3.495,0.887,4.449,1.841c1.431,1.461,2.155,3.115,2.155,5.18
				c0,3.459-3.109,6.985-7.021,6.985C529.548,40.945,527.581,40.342,526.246,38.754 M535.422,33.641
				c0-3.525-2.572-5.747-4.189-5.747c-0.857,0-1.684,0.187-2.445,1.014c-1.238,1.268-1.684,2.572-1.684,4.986
				c0,1.781,0.193,2.982,1.207,4.449c0.73,1.05,1.654,1.654,3.145,1.654C533.865,39.998,535.422,37.04,535.422,33.641"/>
			<path style="fill:#010101;" d="M541.326,28.848h-2.191c-0.157,0-0.217-0.066-0.157-0.35l0.127-0.954
				c0.03-0.187,0.127-0.223,0.38-0.223h1.841v-0.604c0-3.145,0.887-5.21,2.131-6.604c1.684-1.841,3.429-2.511,5.204-2.511
				c1.497,0,2.892,0.573,2.892,1.775c0,0.761-0.827,1.364-1.334,1.364c-0.314,0-0.634-0.066-0.887-0.193
				c-0.284-0.157-0.634-0.573-0.761-0.73c-0.41-0.507-0.857-0.73-1.461-0.73c-0.827,0-1.678,0.223-2.385,1.111
				c-1.171,1.491-1.111,4.256-1.111,6.477v0.634h3.845c0.223,0,0.254,0.187,0.223,0.32l-0.157,1.05
				c-0.03,0.127-0.157,0.157-0.41,0.157h-3.495v2.825c0,3.749,0,6.671,0.03,7.015c0.06,0.543,0.157,0.827,0.827,0.827h1.811
				c0.284,0,0.35,0.06,0.35,0.254v0.507c0,0.254-0.066,0.38-0.223,0.38c-0.193,0-1.364-0.097-3.809-0.097
				c-1.745,0-3.369,0.097-3.622,0.097c-0.187,0-0.254-0.066-0.254-0.223v-0.7c0-0.163,0.066-0.223,0.32-0.223h1.521
				c0.604,0,0.73-0.38,0.761-1.111v-5.97v-3.568H541.326z"/>
			<path style="fill:#010101;" d="M342.597,69.191c-0.38-0.284-0.573-0.38-0.73-0.38c-0.193,0-0.32,0.223-0.507,0.537
				c-0.193,0.35-0.35,0.386-0.573,0.386c-0.187,0-0.35-0.163-0.284-0.507c0.127-0.797,0.447-4.829,0.543-5.747
				c0.03-0.193,0.097-0.193,0.223-0.193l0.477,0.03c0.127,0,0.187,0.066,0.187,0.254c0.03,1.014,0.097,2.065,1.141,3.682
				c0.954,1.491,2.698,2.354,4.443,2.354c1.908,0,4.322-1.177,4.322-4.033c0-3.272-2.348-4.479-4.89-5.367
				c-0.984-0.35-3.272-1.147-4.636-2.572c-1.05-1.05-1.588-2.541-1.588-4.636c0-1.588,0.984-3.145,1.968-4.063
				c1.141-1.081,2.735-1.521,4.449-1.521c1.811,0,3.206,0.537,3.749,0.791c0.284,0.157,0.447,0.127,0.604-0.03l0.41-0.38
				c0.157-0.127,0.254-0.187,0.411-0.187s0.254,0.254,0.254,0.537c0,1.111,0.417,4.352,0.447,5.053c0,0.157-0.036,0.223-0.157,0.254
				l-0.38,0.097c-0.097,0.03-0.157,0-0.187-0.097c-0.254-0.924-0.67-2.155-1.968-3.525c-0.857-0.924-1.968-1.364-3.459-1.364
				c-2.825,0-3.839,2.095-3.839,3.713c0,0.887,0.187,1.938,0.984,2.765c0.924,0.924,2.698,1.624,3.622,1.908
				c2.191,0.7,3.966,1.238,5.113,2.632c0.827,0.984,1.395,2.222,1.395,4.322c0,3.749-2.288,6.954-6.477,6.954
				C345.422,70.845,343.87,70.181,342.597,69.191"/>
			<path style="fill:#010101;" d="M357.23,68.557c-1.461-1.745-1.751-2.922-1.751-5.173c0-1.618,0.857-3.652,2.729-5.113
				c1.654-1.274,3.206-1.527,4.256-1.527c1.745,0,3.495,0.887,4.449,1.841c1.431,1.461,2.161,3.109,2.161,5.173
				c0,3.459-3.109,6.985-7.021,6.985C360.532,70.749,358.558,70.145,357.23,68.557 M366.406,63.444c0-3.525-2.572-5.747-4.189-5.747
				c-0.857,0-1.684,0.193-2.445,1.014c-1.238,1.268-1.684,2.572-1.684,4.986c0,1.781,0.193,2.988,1.207,4.443
				c0.73,1.05,1.654,1.654,3.145,1.654C364.848,69.795,366.406,66.843,366.406,63.444"/>
			<path style="fill:#010101;" d="M382.198,63.921c0,1.527,0,3.079,0.066,3.749c0.097,0.984,0.447,1.111,0.827,1.111
				c0.193,0,0.664,0,1.05-0.097c0.254-0.06,0.35,0,0.38,0.127l0.097,0.417c0.03,0.193-0.03,0.254-0.157,0.284l-3.332,1.111
				c-0.193,0.066-0.38,0.127-0.634,0.127c-0.127,0-0.254-0.066-0.284-0.38l-0.254-1.841h-0.06c-0.887,1.238-2.735,2.228-4.322,2.228
				c-0.887,0-1.938-0.097-2.982-1.461c-1.304-1.684-1.238-2.729-1.238-6.224v-3.682c-0.036-0.887-0.477-1.111-1.207-1.207
				c-0.543-0.03-0.7-0.066-0.7-0.223v-0.573c0-0.187,0.066-0.254,0.35-0.254h2.825c0.187,0,0.32-0.03,0.447-0.066
				c0.127,0,0.254-0.03,0.35-0.03c0.223,0,0.38,0.157,0.35,0.38c-0.03,0.284-0.127,1.775-0.127,3.652v2.258
				c0,1.274-0.32,3.302,0.7,4.763c0.797,1.141,1.684,1.207,2.541,1.207c0.857,0,2.131-0.827,2.729-1.588
				c0.127-0.163,0.32-0.573,0.32-0.857v-7.564c-0.06-0.893-0.573-1.05-1.364-1.111c-0.537,0-0.7-0.066-0.7-0.223v-0.537
				c0-0.254,0.066-0.284,0.38-0.284h2.952c0.223,0,0.38-0.03,0.543-0.066c0.157,0,0.284-0.03,0.38-0.03
				c0.193,0,0.32,0.157,0.284,0.314c-0.03,0.284-0.193,1.111-0.193,4.226v2.348H382.198z"/>
			<path style="fill:#010101;" d="M389.164,66.396c0,2.378,1.081,2.795,1.654,2.795c0.73,0,1.648-0.127,2.095-0.41
				c0.157-0.097,0.284-0.06,0.38,0.06l0.157,0.284c0.097,0.127,0.03,0.254-0.06,0.35c-0.32,0.32-1.618,1.274-3.525,1.274
				c-1.557,0-3.079-1.491-3.079-2.698c0-1.304,0.097-4.099,0.097-4.54v-0.7c0-0.573,0.03-2.698,0.066-4.033h-1.938
				c-0.284,0-0.477-0.127-0.477-0.38c0-0.254,0.187-0.35,0.573-0.573c0.761-0.441,3.206-2.916,3.622-4.002
				c0.097-0.254,0.254-0.314,0.447-0.314c0.254,0,0.32,0.223,0.32,0.477l-0.157,3.145h4.413c0.193,0,0.284,0.157,0.223,0.284
				l-0.314,1.111c-0.036,0.157-0.097,0.254-0.29,0.254h-4.099c-0.06,1.461-0.097,2.988-0.097,4.449v3.169H389.164z"/>
			<path style="fill:#010101;" d="M396.45,53.061c0-1.938-0.38-2.288-1.521-2.668l-0.543-0.187
				c-0.193-0.066-0.223-0.097-0.223-0.187v-0.296c0-0.127,0.097-0.157,0.38-0.314l3.302-1.751c0.254-0.127,0.477-0.254,0.73-0.254
				c0.193,0,0.314,0.254,0.254,0.791s-0.097,6.991-0.097,8.578v2.028h0.157c1.111-1.334,2.952-2.065,4.353-2.065
				c1.334,0,2.258,0.41,3.145,1.268c1.431,1.334,1.364,2.958,1.364,4.666v1.811c0,1.781,0.066,3.749,0.066,4.352
				c0,0.38,0.507,0.477,1.177,0.477h0.537c0.254,0,0.35,0.06,0.35,0.284v0.477c0,0.254-0.066,0.38-0.254,0.38
				c-0.223,0-1.238-0.097-3.049-0.097c-1.557,0-2.698,0.097-2.988,0.097c-0.223,0-0.284-0.097-0.284-0.35v-0.537
				c0-0.157,0.03-0.254,0.223-0.254h0.73c0.537,0,1.177-0.066,1.207-0.604c0.03-0.447,0-2.125,0-3.145v-2.56
				c0-1.781-0.127-3.049-1.05-3.906c-0.634-0.604-1.304-0.887-2.095-0.887c-0.924,0-2.065,0.32-2.952,1.334
				c-0.29,0.35-0.634,0.984-0.634,1.557v6.924c0,1.02,0.097,1.304,0.7,1.304h0.954c0.223,0,0.35,0.06,0.35,0.254v0.537
				c0,0.223-0.06,0.35-0.254,0.35c-0.254,0-1.557-0.097-3.018-0.097c-1.588,0-2.795,0.097-3.079,0.097
				c-0.127,0-0.223-0.097-0.223-0.32v-0.573c0-0.223,0.127-0.254,0.477-0.254h0.664c0.507,0,0.984-0.127,1.05-0.507
				c0.097-0.604,0.097-4.099,0.097-6.164v-9.592H396.45z"/>
			<path style="fill:#010101;" d="M412.611,61.917c-0.06,0.29-0.097,0.797-0.097,1.527c0,3.115,1.968,5.463,4.509,5.463
				c1.938,0,3.302-1.111,3.839-2.161c0.06-0.127,0.193-0.187,0.284-0.157l0.41,0.223c0.097,0.03,0.163,0.127,0,0.471
				c-0.573,1.274-2.221,3.465-5.047,3.465c-1.811,0-3.809-0.537-4.986-2.252c-1.111-1.624-1.395-2.795-1.395-5.017
				c0-1.238,0.32-3.369,1.998-5.053c1.364-1.394,2.952-1.678,4.54-1.678c3.652,0,4.672,3.429,4.672,4.666
				c0,0.447-0.38,0.507-0.887,0.507h-7.842V61.917z M417.664,60.969c0.604,0,0.857-0.157,0.857-0.447c0-0.73-0.38-2.825-2.445-2.825
				c-1.394,0-2.729,0.918-3.332,3.272H417.664z"/>
			<path style="fill:#010101;" d="M424.545,61.923c0-1.618-0.254-1.938-1.147-2.415l-0.604-0.32
				c-0.187-0.06-0.254-0.091-0.254-0.223v-0.187c0-0.127,0.06-0.187,0.254-0.284l3.145-1.618c0.193-0.097,0.32-0.127,0.447-0.127
				c0.193,0,0.223,0.193,0.223,0.38l0.157,2.191h0.127c0.954-1.461,2.445-2.765,3.815-2.765c1.075,0,1.618,0.664,1.618,1.401
				c0,0.918-0.761,1.557-1.334,1.557c-0.35,0-0.664-0.127-0.918-0.254c-0.254-0.157-0.634-0.254-1.05-0.254
				c-0.507,0-1.334,0.32-1.871,1.334c-0.193,0.35-0.32,0.924-0.32,1.014v6.671c0,0.984,0.223,1.298,0.887,1.298h1.491
				c0.187,0,0.223,0.097,0.223,0.29v0.573c0,0.193-0.036,0.284-0.157,0.284c-0.193,0-1.654-0.097-3.368-0.097
				c-1.968,0-3.302,0.097-3.489,0.097c-0.127,0-0.193-0.06-0.193-0.32v-0.537c0-0.223,0.066-0.29,0.35-0.29h1.238
				c0.477,0,0.7-0.193,0.7-0.604c0.03-1.05,0.03-2.161,0.03-3.815V61.923z"/>
			<path style="fill:#010101;" d="M445.903,68.654c0,0.513,0.284,0.67,0.7,0.67h1.014c0.29,0,0.35,0.097,0.35,0.284v0.507
				c0,0.223-0.06,0.35-0.254,0.35c-0.223,0-1.207-0.097-3.018-0.097c-1.618,0-2.638,0.097-2.855,0.097
				c-0.193,0-0.254-0.097-0.254-0.35v-0.507c0-0.223,0.091-0.284,0.41-0.284h0.918c0.35,0,0.604-0.157,0.634-0.73
				c0.03-0.827,0.066-1.841,0.066-2.668V61.73c0-1.268,0-2.191-0.924-2.861c-0.761-0.567-1.527-0.567-2.318-0.567
				c-0.513,0-1.618,0.223-2.572,1.238c-0.64,0.7-0.73,1.557-0.73,2.161v6.574c0,0.857,0.097,1.05,0.761,1.05h0.797
				c0.254,0,0.314,0.097,0.314,0.32v0.537c0,0.193-0.06,0.284-0.223,0.284c-0.217,0-1.081-0.097-2.765-0.097
				c-1.618,0-2.632,0.097-2.825,0.097c-0.157,0-0.223-0.097-0.223-0.284v-0.573c0-0.187,0.066-0.284,0.32-0.284h0.924
				c0.41,0,0.634-0.097,0.634-0.634v-7.437c0-0.954-0.507-1.491-1.304-1.877l-0.254-0.127c-0.223-0.097-0.254-0.193-0.254-0.284
				v-0.157c0-0.163,0.127-0.254,0.284-0.314l2.729-1.527c0.254-0.127,0.447-0.223,0.573-0.223c0.157,0,0.223,0.127,0.254,0.38
				l0.223,1.938h0.06c0.924-1.141,2.765-2.318,4.353-2.318c0.954,0,1.938,0.193,2.698,0.7c0.954,0.634,1.745,2.222,1.745,3.018
				v8.192H445.903z"/>
			<path style="fill:#010101;" d="M458.067,67.924c-2.288-2.161-3.399-5.844-3.399-8.892c0-2.952,0.954-6.001,3.236-8.415
				c1.624-1.72,4.479-3.212,7.938-3.212c2.892,0,5.27,1.081,6.417,1.745c0.41,0.254,0.567,0.223,0.634,0l0.254-0.918
				c0.06-0.193,0.127-0.193,0.41-0.193c0.29,0,0.35,0.066,0.35,0.507c0,0.604,0.634,5.27,0.797,6.157c0.03,0.163,0,0.284-0.127,0.32
				l-0.477,0.127c-0.157,0.03-0.223,0-0.32-0.254c-0.447-1.05-1.141-2.578-2.475-3.942c-1.334-1.364-3.018-2.445-5.524-2.445
				c-5.687,0-7.969,5.047-7.938,9.683c0,1.841,0.574,5.433,3.049,8.162c2.161,2.415,3.972,2.668,6.097,2.668
				c3.592,0,6.387-1.968,7.848-4.033c0.097-0.157,0.157-0.187,0.254-0.097l0.417,0.32c0.097,0.066,0.157,0.127,0.06,0.284
				c-1.908,2.765-4.986,5.336-9.46,5.336C462.354,70.845,459.969,69.668,458.067,67.924"/>
			<path style="fill:#010101;" d="M485.806,66.589c0,1.811,0.38,2.378,0.954,2.378c0.507,0,0.954-0.254,1.111-0.477
				c0.127-0.163,0.193-0.223,0.32-0.127l0.314,0.254c0.097,0.097,0.157,0.254-0.03,0.573c-0.254,0.477-0.857,1.557-2.475,1.557
				c-1.141,0-1.968-0.827-2.252-2.125h-0.06c-0.67,0.797-1.714,1.461-3.145,1.938c-0.604,0.193-1.177,0.193-1.871,0.193
				c-0.767,0-1.908-0.634-1.908-2.638c0-1.461,0.67-2.729,3.175-3.845c1.431-0.634,3.079-1.394,3.586-1.841v-2.034
				c-0.06-0.537-0.097-1.364-0.447-1.775c-0.35-0.417-0.984-0.7-1.908-0.7c-0.634,0-1.618,0.254-2.059,0.67
				c-0.447,0.41-0.157,0.887-0.157,1.461c0,1.111-0.38,1.811-1.684,1.811c-0.507,0-0.761-0.284-0.761-1.014
				c0-1.014,0.887-2.222,2.191-2.982c1.334-0.797,2.445-1.111,3.876-1.111c1.491,0,2.095,0.447,2.541,0.857
				c0.664,0.67,0.7,1.394,0.7,2.252v4.86v1.865H485.806z M483.488,63.384c-1.141,0.857-4.256,1.491-4.256,4.123
				c0,1.177,0.7,1.751,1.654,1.751c0.918,0,2.602-1.111,2.602-1.968V63.384z"/>
			<path style="fill:#010101;" d="M493.811,60.903c0,1.648,0,6.447,0.03,7.431c0.03,0.543,0.157,0.984,0.827,0.984h1.431
				c0.284,0,0.35,0.097,0.35,0.284v0.537c0,0.187-0.066,0.32-0.187,0.32c-0.223,0-1.624-0.097-3.586-0.097
				c-2.034,0-3.302,0.097-3.592,0.097c-0.157,0-0.217-0.127-0.217-0.32v-0.537c0-0.223,0.06-0.284,0.41-0.284h1.521
				c0.35,0,0.67-0.223,0.7-0.797c0.03-0.984,0.03-6.447,0.03-8.282v-2.004c0-2.258-0.03-5.143-0.097-5.97
				c-0.06-1.081-0.567-1.588-1.588-1.902l-0.634-0.223c-0.157-0.06-0.187-0.091-0.187-0.157v-0.254c0-0.097,0.097-0.157,0.29-0.223
				c1.111-0.507,2.535-1.081,3.713-1.841c0.29-0.193,0.477-0.254,0.67-0.254c0.223,0,0.284,0.163,0.254,0.573
				c-0.036,1.745-0.127,8.349-0.127,10.099v2.819H493.811z"/>
			<path style="fill:#010101;" d="M499.588,61.126c0-1.081-0.187-1.654-1.781-1.908c-0.223-0.03-0.284-0.097-0.284-0.223v-0.284
				c0-0.097,0.06-0.157,0.223-0.223c1.014-0.386,2.222-0.893,3.429-1.557c0.254-0.127,0.41-0.193,0.604-0.193
				c0.163,0,0.193,0.157,0.163,0.38c-0.066,0.537-0.066,2.541-0.066,5.18v3.459c0,1.238,0,2.378,0.03,2.729
				c0.066,0.604,0.157,0.827,0.507,0.827h1.461c0.254,0,0.314,0.097,0.314,0.29v0.537c0,0.223-0.06,0.32-0.284,0.32
				c-0.254,0-1.714-0.097-3.049-0.097c-1.841,0-3.085,0.097-3.429,0.097c-0.157,0-0.254-0.06-0.254-0.254v-0.634
				c0-0.187,0.097-0.254,0.32-0.254h1.557c0.35,0,0.477-0.127,0.507-0.634c0.03-0.954,0.03-1.938,0.03-2.892L499.588,61.126
				L499.588,61.126z M498.163,51.443c0-0.797,0.67-1.648,1.938-1.648c1.111,0,1.654,0.857,1.654,1.557
				c0,0.827-0.574,1.745-1.841,1.745C499.208,53.091,498.163,52.457,498.163,51.443"/>
			<path style="fill:#010101;" d="M507.611,58.651h-2.191c-0.157,0-0.223-0.06-0.157-0.35l0.127-0.954
				c0.03-0.193,0.127-0.217,0.38-0.217h1.841v-0.604c0-3.145,0.887-5.204,2.125-6.604c1.684-1.841,3.429-2.511,5.21-2.511
				c1.491,0,2.892,0.573,2.892,1.775c0,0.761-0.827,1.37-1.334,1.37c-0.32,0-0.64-0.066-0.887-0.193
				c-0.29-0.157-0.634-0.573-0.761-0.73c-0.417-0.507-0.857-0.73-1.461-0.73c-0.827,0-1.684,0.223-2.385,1.111
				c-1.171,1.491-1.111,4.256-1.111,6.477v0.634h3.845c0.223,0,0.254,0.187,0.223,0.32l-0.157,1.05
				c-0.03,0.127-0.157,0.157-0.417,0.157h-3.495v2.825c0,3.749,0,6.671,0.036,7.021c0.066,0.537,0.157,0.827,0.827,0.827h1.811
				c0.284,0,0.35,0.06,0.35,0.254v0.507c0,0.254-0.066,0.38-0.217,0.38c-0.193,0-1.364-0.097-3.809-0.097
				c-1.745,0-3.368,0.097-3.616,0.097c-0.193,0-0.254-0.06-0.254-0.223v-0.7c0-0.157,0.066-0.223,0.32-0.223h1.527
				c0.604,0,0.73-0.38,0.761-1.111v-5.97v-3.586H507.611z"/>
			<path style="fill:#010101;" d="M515.145,68.557c-1.461-1.745-1.751-2.922-1.751-5.173c0-1.618,0.857-3.652,2.729-5.113
				c1.654-1.274,3.212-1.527,4.256-1.527c1.751,0,3.495,0.887,4.449,1.841c1.431,1.461,2.161,3.109,2.161,5.173
				c0,3.465-3.115,6.985-7.021,6.985C518.447,70.749,516.479,70.145,515.145,68.557 M524.321,63.444c0-3.525-2.572-5.747-4.19-5.747
				c-0.857,0-1.684,0.193-2.445,1.014c-1.238,1.268-1.684,2.572-1.684,4.986c0,1.781,0.193,2.988,1.207,4.443
				c0.73,1.05,1.648,1.654,3.145,1.654C522.769,69.795,524.321,66.843,524.321,63.444"/>
			<path style="fill:#010101;" d="M529.524,61.923c0-1.618-0.254-1.938-1.147-2.415l-0.604-0.32
				c-0.193-0.06-0.254-0.091-0.254-0.223v-0.187c0-0.127,0.066-0.187,0.254-0.284l3.145-1.618c0.187-0.097,0.314-0.127,0.447-0.127
				c0.187,0,0.223,0.193,0.223,0.38l0.157,2.191h0.127c0.954-1.461,2.445-2.765,3.815-2.765c1.081,0,1.618,0.664,1.618,1.401
				c0,0.918-0.761,1.557-1.334,1.557c-0.35,0-0.67-0.127-0.924-0.254c-0.254-0.157-0.634-0.254-1.044-0.254
				c-0.507,0-1.334,0.32-1.871,1.334c-0.187,0.35-0.32,0.924-0.32,1.014v6.671c0,0.984,0.223,1.298,0.887,1.298h1.491
				c0.193,0,0.223,0.097,0.223,0.29v0.573c0,0.193-0.03,0.284-0.157,0.284c-0.193,0-1.654-0.097-3.368-0.097
				c-1.968,0-3.302,0.097-3.495,0.097c-0.127,0-0.187-0.06-0.187-0.32v-0.537c0-0.223,0.06-0.29,0.35-0.29h1.237
				c0.477,0,0.7-0.193,0.7-0.604c0.03-1.05,0.03-2.161,0.03-3.815V61.923L529.524,61.923z"/>
			<path style="fill:#010101;" d="M550.828,68.654c0,0.513,0.284,0.67,0.7,0.67h1.014c0.284,0,0.35,0.097,0.35,0.284v0.507
				c0,0.223-0.066,0.35-0.254,0.35c-0.217,0-1.201-0.097-3.018-0.097c-1.618,0-2.632,0.097-2.855,0.097
				c-0.193,0-0.254-0.097-0.254-0.35v-0.507c0-0.223,0.091-0.284,0.411-0.284h0.924c0.35,0,0.604-0.157,0.634-0.73
				c0.03-0.827,0.06-1.841,0.06-2.668V61.73c0-1.268,0-2.191-0.918-2.861c-0.767-0.567-1.527-0.567-2.318-0.567
				c-0.507,0-1.618,0.223-2.572,1.238c-0.634,0.7-0.73,1.557-0.73,2.161v6.574c0,0.857,0.097,1.05,0.761,1.05h0.791
				c0.254,0,0.32,0.097,0.32,0.32v0.537c0,0.193-0.066,0.284-0.223,0.284c-0.223,0-1.081-0.097-2.765-0.097
				c-1.618,0-2.632,0.097-2.825,0.097c-0.157,0-0.223-0.097-0.223-0.284v-0.573c0-0.187,0.066-0.284,0.32-0.284h0.918
				c0.417,0,0.634-0.097,0.634-0.634v-7.437c0-0.954-0.507-1.491-1.304-1.877l-0.254-0.127c-0.223-0.097-0.254-0.193-0.254-0.284
				v-0.157c0-0.163,0.127-0.254,0.284-0.314l2.729-1.527c0.254-0.127,0.447-0.223,0.573-0.223c0.157,0,0.223,0.127,0.254,0.38
				l0.223,1.938h0.06c0.924-1.141,2.765-2.318,4.352-2.318c0.954,0,1.938,0.193,2.698,0.7c0.954,0.634,1.745,2.222,1.745,3.018
				v8.192H550.828z"/>
			<path style="fill:#010101;" d="M556.104,61.126c0-1.081-0.187-1.654-1.781-1.908c-0.217-0.03-0.284-0.097-0.284-0.223v-0.284
				c0-0.097,0.06-0.157,0.223-0.223c1.014-0.386,2.221-0.893,3.429-1.557c0.254-0.127,0.411-0.193,0.604-0.193
				c0.157,0,0.187,0.157,0.157,0.38c-0.06,0.537-0.06,2.541-0.06,5.18v3.459c0,1.238,0,2.378,0.03,2.729
				c0.06,0.604,0.157,0.827,0.507,0.827h1.461c0.254,0,0.314,0.097,0.314,0.29v0.537c0,0.223-0.06,0.32-0.284,0.32
				c-0.254,0-1.714-0.097-3.049-0.097c-1.841,0-3.079,0.097-3.429,0.097c-0.157,0-0.254-0.06-0.254-0.254v-0.634
				c0-0.187,0.097-0.254,0.32-0.254h1.557c0.35,0,0.477-0.127,0.507-0.634c0.03-0.954,0.03-1.938,0.03-2.892V61.126L556.104,61.126z
				 M554.679,51.443c0-0.797,0.664-1.648,1.938-1.648c1.111,0,1.654,0.857,1.654,1.557c0,0.827-0.573,1.745-1.847,1.745
				C555.724,53.091,554.679,52.457,554.679,51.443"/>
			<path style="fill:#010101;" d="M570.743,66.589c0,1.811,0.38,2.378,0.954,2.378c0.513,0,0.954-0.254,1.111-0.477
				c0.127-0.163,0.193-0.223,0.32-0.127l0.314,0.254c0.097,0.097,0.163,0.254-0.03,0.573c-0.254,0.477-0.857,1.557-2.475,1.557
				c-1.141,0-1.968-0.827-2.258-2.125h-0.066c-0.664,0.797-1.714,1.461-3.145,1.938c-0.604,0.193-1.171,0.193-1.871,0.193
				c-0.761,0-1.908-0.634-1.908-2.638c0-1.461,0.67-2.729,3.175-3.845c1.431-0.634,3.079-1.394,3.586-1.841v-2.034
				c-0.066-0.537-0.097-1.364-0.447-1.775c-0.35-0.417-0.984-0.7-1.902-0.7c-0.634,0-1.618,0.254-2.065,0.67
				c-0.447,0.41-0.157,0.887-0.157,1.461c0,1.111-0.38,1.811-1.684,1.811c-0.507,0-0.767-0.284-0.767-1.014
				c0-1.014,0.893-2.222,2.191-2.982c1.334-0.797,2.445-1.111,3.876-1.111c1.491,0,2.095,0.447,2.541,0.857
				c0.67,0.67,0.7,1.394,0.7,2.252v4.86v1.865H570.743z M568.425,63.384c-1.141,0.857-4.256,1.491-4.256,4.123
				c0,1.177,0.7,1.751,1.654,1.751c0.924,0,2.602-1.111,2.602-1.968V63.384z"/>
		</g>
	</g>
</g>
</svg>
